<?xml version='1.0' encoding='iso-8859-1'?>
<svg version="1.1" xmlns="http://www.w3.org/2000/svg" viewBox="0 0 470 470" xmlns:xlink="http://www.w3.org/1999/xlink" enable-background="new 0 0 470 470">
  <g>
    <path d="m350.725,193.107c-28.476-31.995-68.492-48.906-115.725-48.906s-87.249,16.911-115.725,48.906c-34.246,38.479-49.677,96.597-42.335,159.454 0.322,2.763 2.148,5.12 4.742,6.124l68.12,26.362 16.037,78.945c0.71,3.495 3.783,6.007 7.35,6.007h123.621c3.566,0 6.64-2.512 7.35-6.007l16.037-78.945 68.12-26.362c2.594-1.004 4.42-3.361 4.742-6.124 7.342-62.857-8.088-120.975-42.334-159.454zm27.92,153.239l-67.688,26.194c-2.384,0.922-4.134,2.996-4.643,5.501l-5.723,28.172-9.91,48.787h-111.362l-9.911-48.787c-0.001-0.003-5.723-28.172-5.723-28.172-0.509-2.505-2.259-4.579-4.643-5.501l-67.688-26.194c-5.632-56.868 8.523-108.883 39.125-143.266 25.548-28.706 61.69-43.879 104.52-43.879s78.972,15.173 104.52,43.879c30.602,34.383 44.757,86.398 39.126,143.266z"/>
    <path d="m191.794,413.709h5.241v5.874c0,4.143 3.357,7.5 7.5,7.5s7.5-3.357 7.5-7.5v-5.874h15.465v5.874c0,4.143 3.357,7.5 7.5,7.5s7.5-3.357 7.5-7.5v-5.874h15.465v5.874c0,4.143 3.357,7.5 7.5,7.5s7.5-3.357 7.5-7.5v-5.874h5.241c4.142,0 7.499-3.356 7.5-7.498 0-4.144-3.357-7.502-7.5-7.502h-5.241v-4.956c0-4.143-3.357-7.5-7.5-7.5s-7.5,3.357-7.5,7.5v4.956h-15.465v-4.956c0-4.143-3.357-7.5-7.5-7.5s-7.5,3.357-7.5,7.5v4.956h-15.465v-4.956c0-4.143-3.357-7.5-7.5-7.5s-7.5,3.357-7.5,7.5v4.956h-5.241c-4.143,0-7.5,3.357-7.5,7.5 0.001,4.144 3.358,7.5 7.5,7.5z"/>
    <path d="m241.344,330.139c-1.373-2.179-3.769-3.5-6.344-3.5s-4.97,1.321-6.344,3.499l-15.029,23.83c-2.21,3.504-1.161,8.135 2.343,10.345 1.242,0.783 2.626,1.157 3.994,1.157 2.489,0 4.925-1.239 6.351-3.5l8.685-13.771 8.684,13.77c2.209,3.504 6.84,4.553 10.344,2.344s4.554-6.841 2.344-10.344l-15.028-23.83z"/>
    <path d="m296.251,236.013c-26.43,0-47.932,21.502-47.932,47.932 0,26.429 21.502,47.931 47.932,47.931 26.429,0 47.931-21.502 47.931-47.931 5.68434e-14-26.43-21.502-47.932-47.931-47.932zm0,80.862c-18.158,0-32.932-14.772-32.932-32.931s14.773-32.932 32.932-32.932 32.931,14.773 32.931,32.932-14.773,32.931-32.931,32.931z"/>
    <path d="m153.489,43.979l8.343,70.263h-1.557c-4.143,0-7.5,3.357-7.5,7.5s3.357,7.5 7.5,7.5h10.073c0.023,0 0.045,0 0.068,0h129.302c0.037,0 10.006,0 10.006,0 4.143,0 7.5-3.357 7.5-7.5s-3.357-7.5-7.5-7.5h-1.557l8.343-70.263c9.107-2.885 15.728-11.416 15.728-21.465-5.68434e-14-12.414-10.099-22.514-22.513-22.514-12.413,0-22.513,10.1-22.513,22.514 0,6.609 2.864,12.561 7.414,16.683l-27.486,19.896-18.595-18.614c5.44-4.113 8.964-10.635 8.964-17.965 0-12.414-10.1-22.514-22.514-22.514-12.413,0-22.513,10.1-22.513,22.514 0,7.33 3.523,13.852 8.964,17.965l-18.59,18.613-27.483-19.895c4.551-4.122 7.414-10.075 7.414-16.684 0.001-12.413-10.099-22.513-22.512-22.513-12.414,0-22.514,10.1-22.514,22.514 0.001,10.049 6.621,18.58 15.728,21.465zm6.786-28.979c4.143,0 7.513,3.371 7.513,7.514s-3.37,7.513-7.513,7.513-7.514-3.37-7.514-7.513 3.372-7.514 7.514-7.514zm9.466,38.638l29.503,21.356c2.984,2.16 7.098,1.834 9.704-0.775l26.048-26.08 26.053,26.081c2.604,2.607 6.719,2.935 9.703,0.774l29.507-21.357-7.196,60.605h-116.126l-7.196-60.604zm65.254-38.638c4.143,0 7.514,3.371 7.514,7.514s-3.371,7.513-7.514,7.513-7.513-3.37-7.513-7.513 3.371-7.514 7.513-7.514zm74.73,0c4.143,0 7.514,3.371 7.514,7.514s-3.371,7.513-7.514,7.513-7.513-3.37-7.513-7.513 3.37-7.514 7.513-7.514z"/>
    <path d="m173.749,236.013c-19.714,0-37.185,11.833-44.509,30.146-1.538,3.846 0.333,8.211 4.179,9.749 0.219,0.088 0.44,0.161 0.661,0.227 3.67,1.089 7.637-0.778 9.088-4.405 5.033-12.585 17.037-20.717 30.581-20.717 18.158,0 32.931,14.773 32.931,32.932s-14.772,32.931-32.931,32.931c-13.544,0-25.548-8.132-30.581-20.716-1.45-3.626-5.414-5.493-9.086-4.406-0.222,0.066-0.443,0.139-0.663,0.227-3.846,1.538-5.717,5.903-4.179,9.749 7.324,18.313 24.795,30.146 44.509,30.146 26.429,0 47.931-21.502 47.931-47.931 0-26.43-21.502-47.932-47.931-47.932z"/>
  </g>
</svg>
