<?xml version="1.0" standalone="no"?>
<!DOCTYPE svg PUBLIC "-//W3C//DTD SVG 20010904//EN"
 "http://www.w3.org/TR/2001/REC-SVG-20010904/DTD/svg10.dtd">
<svg version="1.0" xmlns="http://www.w3.org/2000/svg"
 width="700.000000pt" height="700.000000pt" viewBox="0 0 700.000000 700.000000"
 preserveAspectRatio="xMidYMid meet">
<metadata>
Created by potrace 1.11, written by Peter Selinger 2001-2013
</metadata>
<g transform="translate(0.000000,700.000000) scale(0.100000,-0.100000)"
fill="#000000" stroke="none">
<path d="M2295 6986 c-63 -20 -100 -42 -145 -88 -66 -68 -97 -143 -95 -233 3
-134 68 -241 185 -300 41 -21 50 -30 51 -53 0 -15 2 -34 3 -42 2 -8 7 -46 11
-85 5 -38 9 -77 10 -85 1 -8 5 -46 9 -85 4 -38 9 -77 11 -85 2 -8 7 -46 10
-85 4 -38 8 -81 10 -95 2 -14 6 -45 9 -70 13 -100 38 -307 41 -342 2 -24 -1
-38 -8 -39 -87 -5 -140 -78 -111 -149 16 -38 47 -66 79 -72 11 -2 529 -4 1150
-3 1032 0 1132 2 1153 17 37 25 54 56 54 95 0 49 -30 85 -85 103 -43 14 -46
17 -42 45 2 17 6 57 10 90 3 33 8 71 10 85 3 14 7 50 10 80 4 30 8 71 10 90 3
19 7 60 11 90 3 30 7 69 9 85 2 17 7 55 10 85 4 30 8 66 10 80 2 14 7 52 11
85 4 33 8 67 9 75 1 8 6 48 10 88 7 66 10 75 34 85 51 22 119 77 145 117 49
74 60 111 59 200 -1 129 -72 238 -193 298 -47 23 -68 27 -140 27 -77 -1 -91
-4 -148 -35 -115 -61 -174 -155 -178 -284 -3 -89 10 -134 63 -209 18 -26 33
-50 32 -55 0 -4 -53 -44 -117 -89 -64 -45 -155 -109 -201 -143 l-83 -60 -138
137 -137 138 38 42 c65 71 90 136 91 231 0 57 -20 138 -38 153 -8 6 -14 17
-14 23 0 21 -83 94 -136 120 -157 79 -359 11 -440 -146 -22 -43 -43 -137 -38
-169 11 -74 17 -96 38 -137 13 -26 38 -60 55 -76 17 -17 31 -33 31 -38 0 -4
-60 -68 -133 -143 l-134 -135 -164 118 c-90 65 -183 132 -206 149 -38 27 -41
32 -27 44 25 20 62 83 78 130 22 65 16 183 -13 242 -42 87 -112 150 -195 177
-54 18 -153 20 -201 6z m128 -220 c47 -20 69 -50 71 -95 1 -66 -31 -106 -94
-115 -92 -13 -155 96 -100 173 11 17 36 35 53 40 18 5 33 10 35 10 1 1 17 -5
35 -13z m1133 -7 c31 -15 55 -63 52 -104 -2 -39 -47 -94 -79 -96 -11 -1 -25
-2 -31 -3 -7 -1 -29 6 -49 15 -90 44 -74 168 26 200 22 7 49 3 81 -12z m1111
-1 c48 -24 67 -83 45 -140 -30 -76 -155 -83 -193 -11 -20 37 -17 98 6 124 41
45 87 54 142 27z m-967 -674 c107 -108 209 -202 226 -210 50 -21 84 -9 179 61
219 162 365 263 365 252 0 -6 -9 -84 -20 -172 -11 -88 -22 -182 -26 -210 -3
-27 -7 -61 -9 -75 -3 -23 -8 -63 -20 -177 -6 -55 -13 -115 -23 -193 l-7 -55
-865 -3 -866 -2 -1 22 c-2 20 -13 119 -28 238 -3 19 -7 53 -10 75 -3 22 -7 63
-10 90 -3 28 -8 66 -10 85 -3 19 -7 51 -9 70 -2 19 -7 60 -11 90 -8 65 -11 95
-20 173 l-7 58 194 -141 c292 -213 291 -212 353 -185 17 7 118 101 225 209
107 108 197 196 200 196 3 0 93 -89 200 -196z"/>
<path d="M3289 4847 c-2 -3 -38 -7 -79 -11 -439 -37 -910 -233 -1230 -511 -61
-53 -204 -199 -245 -250 -22 -28 -42 -52 -45 -55 -17 -16 -115 -159 -164 -240
-182 -301 -324 -711 -371 -1075 -4 -27 -9 -61 -11 -75 -26 -167 -26 -656 1
-871 2 -15 8 -35 13 -45 23 -44 35 -50 402 -188 317 -119 674 -265 676 -277 6
-44 16 -91 49 -253 20 -99 38 -187 40 -195 2 -9 17 -86 35 -171 18 -85 34
-164 36 -175 2 -11 11 -55 20 -98 8 -42 17 -87 20 -100 2 -12 6 -33 9 -47 3
-14 10 -50 16 -80 14 -70 23 -87 62 -110 31 -19 59 -20 977 -20 927 0 946 0
978 20 30 19 49 48 58 95 2 11 6 31 9 45 3 14 7 34 9 45 2 11 18 90 36 175 17
85 33 166 36 180 2 14 7 36 10 50 3 14 8 36 10 50 3 14 21 104 40 200 20 96
38 184 40 195 35 189 48 224 82 225 7 0 20 4 30 10 9 5 58 25 107 44 50 19
203 78 340 131 138 52 259 99 270 104 11 5 65 26 120 47 140 53 167 74 179
136 14 77 21 230 21 448 0 342 -17 501 -85 790 -173 735 -583 1296 -1170 1603
-222 116 -514 207 -750 233 -25 3 -56 8 -70 11 -29 7 -504 16 -511 10z m481
-232 c229 -28 415 -75 596 -150 492 -204 874 -607 1087 -1145 42 -105 104
-302 123 -390 4 -19 8 -37 9 -40 1 -3 5 -25 10 -50 5 -25 9 -47 10 -50 1 -3 7
-45 14 -95 7 -49 15 -101 17 -115 17 -105 24 -459 11 -625 -3 -49 -6 -95 -7
-101 0 -6 -15 -17 -32 -24 -18 -7 -42 -16 -53 -21 -11 -5 -213 -83 -450 -174
-236 -91 -449 -174 -472 -185 -44 -20 -68 -54 -78 -110 -3 -18 -31 -154 -61
-303 -56 -277 -61 -300 -68 -339 -2 -13 -7 -34 -10 -48 -3 -14 -8 -36 -10 -50
-3 -14 -21 -103 -40 -197 -20 -95 -36 -174 -36 -176 0 -1 -373 -3 -829 -3
l-829 0 -6 26 c-3 14 -16 79 -30 145 -14 66 -27 131 -30 145 -7 38 -82 408
-112 550 -14 69 -28 136 -30 150 -26 146 -40 183 -82 204 -15 7 -92 39 -172
69 -541 208 -842 326 -846 330 -24 23 -22 642 2 762 2 11 6 38 9 60 4 34 26
157 39 220 71 346 226 694 429 965 77 103 237 270 329 343 293 233 643 373
1058 421 117 13 438 14 540 1z"/>
<path d="M2535 3482 c-115 -8 -256 -57 -350 -122 -126 -87 -265 -277 -265
-362 0 -84 81 -137 155 -102 23 11 43 35 71 87 51 94 140 184 224 225 80 39
103 44 208 48 263 9 483 -196 497 -463 5 -86 -13 -163 -56 -248 -63 -123 -176
-212 -319 -250 -53 -14 -195 -12 -246 3 -126 39 -243 137 -306 258 -46 88 -87
114 -149 95 -76 -23 -98 -90 -58 -179 159 -351 585 -511 935 -352 201 91 349
267 404 480 28 109 22 287 -13 387 -110 319 -407 519 -732 495z"/>
<path d="M4368 3485 c-2 -2 -23 -5 -48 -8 -25 -4 -55 -9 -67 -12 -13 -3 -31
-7 -42 -9 -42 -10 -130 -52 -193 -93 -199 -130 -324 -369 -317 -608 16 -559
633 -885 1099 -580 106 70 178 147 238 255 94 169 112 379 50 565 -92 278
-351 474 -645 488 -40 2 -74 3 -75 2z m163 -240 c130 -38 255 -135 312 -243
128 -246 29 -550 -218 -668 -116 -56 -237 -66 -357 -30 -62 19 -159 77 -203
122 -188 196 -186 502 5 692 118 118 308 170 461 127z"/>
<path d="M3458 2123 c-32 -13 -52 -38 -151 -196 -63 -100 -121 -195 -129 -212
-35 -70 17 -155 96 -155 55 0 75 19 152 136 l76 118 21 -35 c128 -207 140
-219 210 -219 49 1 95 48 102 105 3 21 -27 80 -97 190 -100 157 -105 166 -124
200 -18 32 -62 74 -79 76 -5 0 -17 2 -25 4 -9 1 -32 -4 -52 -12z"/>
<path d="M2991 1229 c-44 -27 -55 -54 -60 -156 -1 -9 -18 -13 -52 -13 -82 0
-129 -39 -131 -108 -2 -69 50 -112 136 -112 25 0 46 -3 47 -7 1 -5 2 -31 3
-58 4 -82 40 -126 103 -130 90 -6 118 36 123 182 0 9 31 12 114 12 l114 -1 1
-54 c0 -29 7 -67 16 -84 39 -76 151 -76 190 0 8 16 15 54 15 84 l0 54 115 0
c100 0 115 -2 116 -17 5 -121 19 -153 76 -172 84 -27 145 26 147 131 l1 57 48
2 c89 2 137 40 139 109 2 70 -57 117 -142 113 l-45 -2 -2 56 c-1 33 -8 66 -18
81 -24 37 -74 55 -116 44 -69 -20 -83 -45 -88 -161 -1 -14 -17 -17 -116 -17
l-115 0 0 49 c0 80 -31 121 -101 133 -32 5 -86 -20 -102 -48 -6 -12 -14 -46
-17 -76 l-5 -55 -112 -3 c-62 -2 -113 1 -114 5 0 4 -1 28 -3 53 -4 61 -22 96
-60 112 -44 18 -72 17 -105 -3z"/>
</g>
</svg>
